<?xml version="1.0" encoding="utf-8"?>
<!-- Generator: Adobe Illustrator 16.0.0, SVG Export Plug-In . SVG Version: 6.00 Build 0)  -->
<!DOCTYPE svg PUBLIC "-//W3C//DTD SVG 1.1//EN" "http://www.w3.org/Graphics/SVG/1.1/DTD/svg11.dtd">
<svg version="1.1" id="Слой_1" xmlns="http://www.w3.org/2000/svg" xmlns:xlink="http://www.w3.org/1999/xlink" x="0px" y="0px"
	 width="26px" height="26px" viewBox="0 0 26 26" enable-background="new 0 0 26 26" xml:space="preserve">
<rect fill="none" width="26" height="26"/>
<rect fill="none" width="26" height="26"/>
<path fill="#1D1D1B" d="M12,18c-1.65625,0-3-1.34375-3-3v-4c0-1.65625,1.34375-3,3-3h9c1.6572266,0,3,1.34375,3,3v4
	c0,1.65625-1.3427734,3-3,3H12z"/>
<path fill="#1D1D1B" d="M3.9238281,15.5c-2.4960938-2.4951172-2.4902344-2.4648438,0-4.9550781l7.4345703-7.4335938
	C12.7265625,1.7441406,13,2.0585938,13,3.6542969v18.7421875c0,1.4414062-0.2734375,1.9042969-1.6416016,0.5380859L3.9238281,15.5z"
	/>
</svg>
