<?xml version="1.0" encoding="utf-8"?>
<!-- Generator: Adobe Illustrator 16.0.0, SVG Export Plug-In . SVG Version: 6.00 Build 0)  -->
<!DOCTYPE svg PUBLIC "-//W3C//DTD SVG 1.1//EN" "http://www.w3.org/Graphics/SVG/1.1/DTD/svg11.dtd">
<svg version="1.1" id="Слой_1" xmlns="http://www.w3.org/2000/svg" xmlns:xlink="http://www.w3.org/1999/xlink" x="0px" y="0px"
	 width="18px" height="18px" viewBox="0 0 18 18" enable-background="new 0 0 18 18" xml:space="preserve">
<polyline fill="none" points="17.97,0.03 17.97,17.97 0.03,17.97 "/>
<polyline fill="none" points="0.03,17.97 0.03,0.03 17.97,0.03 "/>
<path fill="none" stroke="#000000" stroke-width="1.4354" stroke-miterlimit="10" d="M11.76,3.086c0,0.979-0.772,1.774-1.725,1.774
	h-2.07c-0.953,0-1.725-0.794-1.725-1.774V2.494c0-0.98,0.772-1.774,1.725-1.774h2.07c0.952,0,1.725,0.794,1.725,1.774V3.086z"/>
<path fill="none" stroke="#000000" stroke-width="1.38" stroke-miterlimit="10" d="M14.52,15.9c0,0.762-0.617,1.38-1.38,1.38H4.86
	c-0.762,0-1.38-0.618-1.38-1.38V4.17h11.04V15.9z"/>
<line fill="none" stroke="#000000" stroke-width="1.38" stroke-miterlimit="10" x1="11.76" y1="6.93" x2="11.76" y2="15.21"/>
<line fill="none" stroke="#000000" stroke-width="1.38" stroke-miterlimit="10" x1="9" y1="6.93" x2="9" y2="15.21"/>
<line fill="none" stroke="#000000" stroke-width="1.38" stroke-miterlimit="10" x1="6.24" y1="6.93" x2="6.24" y2="15.21"/>
<path d="M15.9,4.17V3.48c0-0.38-0.311-0.69-0.69-0.69H2.79C2.41,2.79,2.1,3.1,2.1,3.48v0.69H1.41v1.38h1.38h12.42h1.38V4.17H15.9z"
	/>
</svg>
