<?xml version="1.0" encoding="utf-8"?>
<!-- Generator: Adobe Illustrator 16.0.0, SVG Export Plug-In . SVG Version: 6.00 Build 0)  -->
<!DOCTYPE svg PUBLIC "-//W3C//DTD SVG 1.1//EN" "http://www.w3.org/Graphics/SVG/1.1/DTD/svg11.dtd">
<svg version="1.1" id="Layer_1" xmlns="http://www.w3.org/2000/svg" xmlns:xlink="http://www.w3.org/1999/xlink" x="0px" y="0px"
	 width="26px" height="26px" viewBox="0 0 26 26" enable-background="new 0 0 26 26" xml:space="preserve">
<line fill="none" x1="26" y1="0" x2="26" y2="26"/>
<polyline fill="none" points="26,26 0,26 0,0 "/>
<g>
	<path fill="#FFFFFF" d="M16.803,12.707c-0.432,0.296-1.42-0.099-2.478-1.156c-1.059-1.058-1.353-1.952-1.054-2.384l6.154-8.612
		c0.299-0.429,0.848-0.479,1.219-0.108l4.947,4.95c0.37,0.368,0.32,0.915-0.113,1.212L16.803,12.707z"/>
</g>
<path fill="#FFFFFF" d="M15.855,15.105c-0.243-0.52-1.426-0.77-2.563-1.876s-1.288-2.315-2.132-2.008
	C-1.375,15.791,6.167,21.25,0.094,25.953C13,25.953,15.855,23,15.855,15.105z"/>
</svg>
