<?xml version="1.0" encoding="utf-8"?>
<!-- Generator: Adobe Illustrator 16.0.0, SVG Export Plug-In . SVG Version: 6.00 Build 0)  -->
<!DOCTYPE svg PUBLIC "-//W3C//DTD SVG 1.1//EN" "http://www.w3.org/Graphics/SVG/1.1/DTD/svg11.dtd">
<svg version="1.1" id="Слой_1" xmlns="http://www.w3.org/2000/svg" xmlns:xlink="http://www.w3.org/1999/xlink" x="0px" y="0px"
	 width="26px" height="26px" viewBox="0 0 26 26" enable-background="new 0 0 26 26" xml:space="preserve">
<g>
	<path fill="#FFFFFF" d="M22.875,4C23.5527344,4,24,4.7631836,24,5.6665039v14.6665039C24,21.2363281,23.4277344,22,22.75,22
		H3.2495117C2.5722656,22,2,21.2363281,2,20.3330078V5.6665039C2,4.7631836,2.5722656,4,3.2495117,4H23 M22.75,2H3.2495117
		C1.4555664,2,0,3.6420898,0,5.6665039v14.6665039C0,22.3603516,1.4555664,24,3.2495117,24H22.75
		c1.7949219,0,3.25-1.6396484,3.25-3.6669922V5.6665039C26,3.6420898,24.5449219,2,22.75,2L22.75,2z"/>
</g>
<path fill="#FFFFFF" d="M17.09375,12.347168L9.5664062,8.5800781c-0.2285156-0.1157227-0.5-0.1040039-0.7177734,0.0302734
	C8.6328125,8.7402344,8.5,8.9785156,8.5,9.2319336v7.5375977c0,0.2539062,0.1328125,0.4902344,0.3486328,0.6230469
	C8.96875,17.4628906,9.1015625,17.5,9.2353516,17.5c0.1142578,0,0.2275391-0.0253906,0.3310547-0.078125l7.5273438-3.7695312
	C17.3427734,13.5273438,17.5,13.2773438,17.5,13S17.3427734,12.4726562,17.09375,12.347168z"/>
</svg>
