<?xml version="1.0" encoding="utf-8"?>
<!-- Generator: Adobe Illustrator 16.0.0, SVG Export Plug-In . SVG Version: 6.00 Build 0)  -->
<!DOCTYPE svg PUBLIC "-//W3C//DTD SVG 1.1//EN" "http://www.w3.org/Graphics/SVG/1.1/DTD/svg11.dtd">
<svg version="1.1" id="Layer_1" xmlns="http://www.w3.org/2000/svg" xmlns:xlink="http://www.w3.org/1999/xlink" x="0px" y="0px"
	 width="26px" height="26px" viewBox="0 0 26 26" enable-background="new 0 0 26 26" xml:space="preserve">
<line fill="none" x1="26" y1="0" x2="26" y2="26"/>
<line fill="none" x1="0" y1="26" x2="0" y2="0"/>
<path fill="#FFFFFF" d="M3.104,11.05c0,5.465,4.432,9.897,9.897,9.897c5.466,0,9.896-4.433,9.896-9.897h-1.267
	c0,4.758-3.871,8.63-8.63,8.63s-8.63-3.872-8.63-8.63H3.104z"/>
<path fill="#FFFFFF" d="M25.52,12.803c-2.818-4.164-7.498-6.648-12.519-6.648c-5.02,0-9.701,2.484-12.52,6.646
	c-0.528,0.78-0.324,1.839,0.454,2.365c0.293,0.199,0.625,0.295,0.954,0.295c0.546,0,1.083-0.264,1.412-0.749
	c2.186-3.226,5.812-5.152,9.701-5.152c3.89,0,7.515,1.925,9.698,5.152c0.525,0.778,1.584,0.981,2.364,0.455
	C25.843,14.64,26.047,13.581,25.52,12.803z"/>
<circle fill="#FFFFFF" cx="13" cy="13" r="4.813"/>
</svg>
