<?xml version="1.0" encoding="utf-8"?>
<!-- Generator: Adobe Illustrator 16.0.0, SVG Export Plug-In . SVG Version: 6.00 Build 0)  -->
<!DOCTYPE svg PUBLIC "-//W3C//DTD SVG 1.1//EN" "http://www.w3.org/Graphics/SVG/1.1/DTD/svg11.dtd">
<svg version="1.1" id="Слой_1" xmlns="http://www.w3.org/2000/svg" xmlns:xlink="http://www.w3.org/1999/xlink" x="0px" y="0px"
	 width="18px" height="18px" viewBox="0 0 18 18" enable-background="new 0 0 18 18" xml:space="preserve">
<g>
	<path fill="#FFFFFF" d="M8.554,14.502h-1.78V9.611H1.773v4.891H0V3.654h1.773v4.438h5.001V3.654h1.78V14.502z"/>
	<path fill="#FFFFFF" d="M18,14.502h-7.354v-1.32l2.799-2.812c0.825-0.846,1.373-1.447,1.642-1.8
		c0.271-0.354,0.468-0.687,0.591-0.999c0.124-0.311,0.185-0.645,0.185-1.001c0-0.489-0.146-0.875-0.441-1.156
		C15.129,5.13,14.72,4.99,14.201,4.99c-0.416,0-0.818,0.076-1.207,0.229c-0.388,0.153-0.835,0.431-1.345,0.831l-0.943-1.149
		c0.603-0.51,1.19-0.872,1.759-1.084c0.567-0.212,1.175-0.318,1.819-0.318c1.008,0,1.816,0.263,2.426,0.79
		c0.607,0.527,0.91,1.234,0.91,2.126c0,0.489-0.088,0.954-0.264,1.394c-0.176,0.441-0.444,0.894-0.809,1.361
		c-0.361,0.467-0.968,1.1-1.813,1.898l-1.884,1.823v0.076H18V14.502z"/>
</g>
</svg>
