<?xml version="1.0" encoding="utf-8"?>
<!-- Generator: Adobe Illustrator 16.0.0, SVG Export Plug-In . SVG Version: 6.00 Build 0)  -->
<!DOCTYPE svg PUBLIC "-//W3C//DTD SVG 1.1//EN" "http://www.w3.org/Graphics/SVG/1.1/DTD/svg11.dtd">
<svg version="1.1" id="Слой_1" xmlns="http://www.w3.org/2000/svg" xmlns:xlink="http://www.w3.org/1999/xlink" x="0px" y="0px"
	 width="18px" height="18px" viewBox="0 0 18 18" enable-background="new 0 0 18 18" xml:space="preserve">
<g>
	<path d="M8.5541992,14.5019531H6.7744141V9.6118164H1.7734375v4.8901367H0V3.6538086h1.7734375v4.4375h5.0009766v-4.4375h1.7797852
		V14.5019531z"/>
	<path d="M18,14.5019531h-7.3535156v-1.3203125l2.7988281-2.8125c0.8251953-0.8461914,1.3730469-1.4467773,1.6416016-1.7998047
		c0.2714844-0.3535156,0.4677734-0.6865234,0.5908203-0.9990234c0.1240234-0.3105469,0.1845703-0.6445312,0.1845703-1.0014648
		c0-0.4887695-0.1464844-0.8745117-0.4414062-1.15625c-0.2919922-0.2822266-0.7011719-0.4228516-1.2197266-0.4228516
		c-0.4160156,0-0.8183594,0.0756836-1.2070312,0.2294922c-0.3876953,0.152832-0.8349609,0.4306641-1.3447266,0.8305664
		l-0.9433594-1.1489258c0.6025391-0.5097656,1.1904297-0.8720703,1.7587891-1.0844727
		c0.5673828-0.2124023,1.1748047-0.3183594,1.8193359-0.3183594c1.0078125,0,1.8164062,0.2631836,2.4257812,0.7900391
		c0.6074219,0.5268555,0.9101562,1.234375,0.9101562,2.1259766c0,0.4887695-0.0878906,0.9536133-0.2636719,1.394043
		c-0.1757812,0.4414062-0.4443359,0.894043-0.8085938,1.3613281c-0.3613281,0.4677734-0.9677734,1.1000977-1.8134766,1.8979492
		l-1.8837891,1.8232422v0.0761719H18V14.5019531z"/>
</g>
</svg>
