<?xml version="1.0" encoding="utf-8"?>
<!-- Generator: Adobe Illustrator 16.0.0, SVG Export Plug-In . SVG Version: 6.00 Build 0)  -->
<!DOCTYPE svg PUBLIC "-//W3C//DTD SVG 1.1//EN" "http://www.w3.org/Graphics/SVG/1.1/DTD/svg11.dtd">
<svg version="1.1" id="Слой_1" xmlns="http://www.w3.org/2000/svg" xmlns:xlink="http://www.w3.org/1999/xlink" x="0px" y="0px"
	 width="28px" height="22px" viewBox="0 0 28 22" enable-background="new 0 0 28 22" xml:space="preserve">
<polyline fill="none" points="1,-2 27,-2 27,24 "/>
<polyline fill="none" points="27,24 1,24 1,-2 "/>
<path fill="#FFFFFF" d="M21.834,15.236c0,0-2.461-3.236-3.834-3.236s-1.706,1.28-2.92,1.28C12.948,13.28,11.583,9,10,9
	s-3.812,5.926-3.812,5.926C5.813,15.536,6.397,16,6.874,16h5.621h1.298h7.199C21.577,16,22.342,15.658,21.834,15.236z"/>
<circle fill="#FFFFFF" cx="17" cy="8" r="2"/>
<path fill="#FFFFFF" d="M24.801,0H3.199c-1.789,0-3.24,1.478-3.24,3.3v15.4c0,1.822,1.451,3.3,3.24,3.3h21.602
	c1.789,0,3.24-1.478,3.24-3.3V3.3C28.041,1.478,26.59,0,24.801,0z M25.881,18.7c0,0.606-0.484,1.1-1.08,1.1H3.199
	c-0.596,0-1.08-0.493-1.08-1.1V3.3c0-0.606,0.484-1.1,1.08-1.1h21.602c0.596,0,1.08,0.494,1.08,1.1V18.7z"/>
</svg>
