<?xml version="1.0" encoding="utf-8"?>
<!-- Generator: Adobe Illustrator 16.0.0, SVG Export Plug-In . SVG Version: 6.00 Build 0)  -->
<!DOCTYPE svg PUBLIC "-//W3C//DTD SVG 1.1//EN" "http://www.w3.org/Graphics/SVG/1.1/DTD/svg11.dtd">
<svg version="1.1" id="Layer_1" xmlns="http://www.w3.org/2000/svg" xmlns:xlink="http://www.w3.org/1999/xlink" x="0px" y="0px"
	 width="18px" height="18px" viewBox="0 0 18 18" enable-background="new 0 0 18 18" xml:space="preserve">
<path fill="#353535" d="M12.461,9c0,1.146-0.93,2.076-2.076,2.076h-2.77c-1.146,0-2.077-0.93-2.077-2.076V2.077
	C5.538,0.93,6.469,0,7.615,0h2.77c1.146,0,2.076,0.93,2.076,2.077V9z"/>
<path fill="#353535" d="M10.529,13.168c-1.526,1.526-1.508,1.522-3.031,0L2.95,8.62C2.115,7.782,2.307,7.615,3.283,7.615h11.465
	c0.881,0,1.166,0.167,0.329,1.004L10.529,13.168z"/>
<rect fill="none" width="18" height="18"/>
<rect y="16.615" fill="#353535" width="18" height="1.385"/>
</svg>
