<?xml version="1.0" encoding="utf-8"?>
<!-- Generator: Adobe Illustrator 16.0.0, SVG Export Plug-In . SVG Version: 6.00 Build 0)  -->
<!DOCTYPE svg PUBLIC "-//W3C//DTD SVG 1.1//EN" "http://www.w3.org/Graphics/SVG/1.1/DTD/svg11.dtd">
<svg version="1.1" id="Слой_1" xmlns="http://www.w3.org/2000/svg" xmlns:xlink="http://www.w3.org/1999/xlink" x="0px" y="0px"
	 width="18px" height="18px" viewBox="0 0 18 18" enable-background="new 0 0 18 18" xml:space="preserve">
<g>
	<path fill="#FFFFFF" d="M13.187,17V6.834c0-1.281-0.292-2.236-0.875-2.867s-1.495-0.946-2.738-0.946
		c-1.644,0-2.848,0.444-3.612,1.333C5.196,5.243,4.814,6.71,4.814,8.755V17h-2.38V1.287H4.37l0.387,2.15h0.114
		c0.488-0.774,1.171-1.374,2.051-1.799C7.801,1.212,8.78,1,9.86,1c1.893,0,3.316,0.456,4.271,1.369
		c0.956,0.913,1.434,2.373,1.434,4.38V17H13.187z"/>
</g>
</svg>
