<?xml version="1.0" encoding="utf-8"?>
<!-- Generator: Adobe Illustrator 16.0.0, SVG Export Plug-In . SVG Version: 6.00 Build 0)  -->
<!DOCTYPE svg PUBLIC "-//W3C//DTD SVG 1.1//EN" "http://www.w3.org/Graphics/SVG/1.1/DTD/svg11.dtd">
<svg version="1.1" id="Слой_1" xmlns="http://www.w3.org/2000/svg" xmlns:xlink="http://www.w3.org/1999/xlink" x="0px" y="0px"
	 width="18px" height="18px" viewBox="0 0 18 18" enable-background="new 0 0 18 18" xml:space="preserve">
<g>
	<path d="M13.1865234,17V6.8344727c0-1.2807617-0.2919922-2.2363281-0.875-2.8671875s-1.4951172-0.9462891-2.7382812-0.9462891
		c-1.6435547,0-2.8476562,0.4443359-3.6123047,1.3334961C5.1962891,5.2431641,4.8144531,6.7099609,4.8144531,8.7553711V17H2.4345703
		V1.2866211h1.9355469l0.3867188,2.1503906h0.1142578C5.359375,2.6625977,6.0419922,2.0629883,6.921875,1.6376953
		C7.8007812,1.2124023,8.7802734,1,9.8603516,1c1.8925781,0,3.3164062,0.4560547,4.2714844,1.3686523
		c0.9560547,0.9130859,1.4335938,2.3725586,1.4335938,4.3798828V17H13.1865234z"/>
</g>
</svg>
