<?xml version="1.0" encoding="utf-8"?>
<!-- Generator: Adobe Illustrator 16.0.0, SVG Export Plug-In . SVG Version: 6.00 Build 0)  -->
<!DOCTYPE svg PUBLIC "-//W3C//DTD SVG 1.1//EN" "http://www.w3.org/Graphics/SVG/1.1/DTD/svg11.dtd">
<svg version="1.1" id="Layer_1" xmlns="http://www.w3.org/2000/svg" xmlns:xlink="http://www.w3.org/1999/xlink" x="0px" y="0px"
	 width="26px" height="26px" viewBox="0 0 26 26" enable-background="new 0 0 26 26" xml:space="preserve">
<g>
	<path fill="#FFFFFF" d="M14.79,2.683v4.442c-9.77,0-17.863,3.234-13.646,17.542C0.481,15.724,4.835,12.916,14.79,12.916v4.359
		c0,0.314,0.174,0.598,0.465,0.719c0.096,0.038,0.197,0.059,0.299,0.059c0.201,0,0.4-0.078,0.549-0.229l9.309-7.278
		c0.304-0.303,0.304-0.798,0-1.1l-9.309-7.313c-0.223-0.221-0.559-0.289-0.848-0.168C14.964,2.085,14.79,2.368,14.79,2.683z"/>
</g>
</svg>
