<?xml version="1.0" encoding="utf-8"?>
<!-- Generator: Adobe Illustrator 16.0.0, SVG Export Plug-In . SVG Version: 6.00 Build 0)  -->
<!DOCTYPE svg PUBLIC "-//W3C//DTD SVG 1.1//EN" "http://www.w3.org/Graphics/SVG/1.1/DTD/svg11.dtd">
<svg version="1.1" id="Layer_1" xmlns="http://www.w3.org/2000/svg" xmlns:xlink="http://www.w3.org/1999/xlink" x="0px" y="0px"
	 width="26px" height="26px" viewBox="0 0 26 26" enable-background="new 0 0 26 26" xml:space="preserve">
<g>
	<path fill="#FFFFFF" d="M18,9h-3V2h3V9z M26,6v17c0,1.657-1.344,3-3,3H3c-1.656,0-3-1.343-3-3V3c0-1.657,1.344-3,3-3h17
		c0.828,0,1.285,0.043,3.621,2.379S26,5.172,26,6z M5,9c0,0.551,0.449,1,1,1h13c0.551,0,1-0.449,1-1V2c0-0.551-0.449-1-1-1H6
		C5.449,1,5,1.449,5,2V9z M23,14c0-0.551-0.449-1-1-1H4c-0.551,0-1,0.449-1,1v10c0,0.551,0.449,1,1,1h18c0.551,0,1-0.449,1-1V14z"/>
</g>
</svg>
