<?xml version="1.0" encoding="utf-8"?>
<!-- Generator: Adobe Illustrator 16.0.0, SVG Export Plug-In . SVG Version: 6.00 Build 0)  -->
<!DOCTYPE svg PUBLIC "-//W3C//DTD SVG 1.1//EN" "http://www.w3.org/Graphics/SVG/1.1/DTD/svg11.dtd">
<svg version="1.1" id="Слой_1" xmlns="http://www.w3.org/2000/svg" xmlns:xlink="http://www.w3.org/1999/xlink" x="0px" y="0px"
	 width="18px" height="18px" viewBox="0 0 18 18" enable-background="new 0 0 18 18" xml:space="preserve">
<g>
	<path d="M11.75,12.861v-1.469l-1.748-0.286c-0.104-0.413-0.266-0.803-0.48-1.16l1.02-1.453L9.502,7.457L8.07,8.487
		C7.711,8.271,7.318,8.105,6.903,8.002l-0.304-1.74H5.128L4.847,7.997c-0.418,0.102-0.812,0.265-1.17,0.479l-1.429-1.02l-1.04,1.038
		l1.005,1.438c-0.217,0.361-0.383,0.753-0.487,1.173L0,11.393v1.469l1.724,0.306c0.104,0.419,0.27,0.813,0.488,1.174l-1.02,1.424
		l1.039,1.039l1.44-1.008c0.36,0.217,0.752,0.38,1.17,0.482l0.287,1.735h1.471l0.308-1.739c0.416-0.105,0.807-0.271,1.164-0.488
		l1.45,1.018l1.038-1.039l-1.035-1.436c0.213-0.357,0.377-0.747,0.479-1.162L11.75,12.861z M5.875,14.187
		c-1.132,0-2.048-0.916-2.048-2.049c0-1.131,0.917-2.048,2.048-2.048s2.047,0.917,2.047,2.048
		C7.923,13.271,7.007,14.187,5.875,14.187z"/>
</g>
<g>
	<path d="M17.445,6.751l0.433-1.036l-1.149-0.718c0.051-0.323,0.051-0.645,0.004-0.961l1.147-0.722l-0.426-1.04l-1.315,0.305
		c-0.188-0.259-0.416-0.49-0.68-0.687l0.299-1.316L14.72,0.142l-0.709,1.14c-0.327-0.051-0.651-0.052-0.968-0.007l-0.707-1.141
		l-1.04,0.424l0.285,1.312c-0.259,0.189-0.491,0.419-0.69,0.684L9.588,2.246L9.154,3.281l1.127,0.727
		c-0.051,0.325-0.049,0.65-0.002,0.971L9.141,5.683l0.424,1.041l1.312-0.287c0.19,0.259,0.419,0.489,0.685,0.686l-0.31,1.309
		l1.036,0.432l0.732-1.135c0.323,0.048,0.649,0.047,0.964-0.002l0.724,1.147l1.037-0.427L15.439,7.13
		c0.257-0.189,0.486-0.417,0.682-0.678L17.445,6.751z M12.908,5.952c-0.796-0.334-1.174-1.251-0.84-2.051
		c0.334-0.797,1.251-1.173,2.049-0.839c0.799,0.334,1.176,1.251,0.842,2.05C14.626,5.91,13.707,6.285,12.908,5.952z"/>
</g>
</svg>
