<?xml version="1.0" encoding="utf-8"?>
<!-- Generator: Adobe Illustrator 16.0.0, SVG Export Plug-In . SVG Version: 6.00 Build 0)  -->
<!DOCTYPE svg PUBLIC "-//W3C//DTD SVG 1.1//EN" "http://www.w3.org/Graphics/SVG/1.1/DTD/svg11.dtd">
<svg version="1.1" id="Layer_1" xmlns="http://www.w3.org/2000/svg" xmlns:xlink="http://www.w3.org/1999/xlink" x="0px" y="0px"
	 width="18px" height="18px" viewBox="0 0 18 18" enable-background="new 0 0 18 18" xml:space="preserve">
<rect fill="none" width="18" height="18"/>
<g>
	<path fill="#353535" d="M5.828,15.973c-0.077,0.244-0.176,0.412-0.298,0.504c-0.122,0.092-0.29,0.137-0.504,0.137H2.485
		c-0.168,0-0.283-0.033-0.344-0.104c-0.062-0.067-0.054-0.23,0.023-0.49L6.584,2.051C6.66,1.838,6.751,1.673,6.859,1.558
		c0.106-0.113,0.312-0.172,0.619-0.172h2.885c0.32,0,0.529,0.062,0.63,0.184c0.099,0.122,0.186,0.29,0.264,0.503l4.602,13.991
		c0.047,0.184,0.053,0.32,0.023,0.412c-0.031,0.092-0.129,0.137-0.297,0.137h-2.84c-0.26,0-0.436-0.057-0.527-0.171
		s-0.176-0.295-0.252-0.536l-0.758-2.773H6.685L5.828,15.973z M8.988,5.073H8.875l-1.443,5.335h2.977L8.988,5.073z"/>
</g>
</svg>
