<?xml version="1.0" encoding="utf-8"?>
<!-- Generator: Adobe Illustrator 16.0.0, SVG Export Plug-In . SVG Version: 6.00 Build 0)  -->
<!DOCTYPE svg PUBLIC "-//W3C//DTD SVG 1.1//EN" "http://www.w3.org/Graphics/SVG/1.1/DTD/svg11.dtd">
<svg version="1.1" id="Слой_1" xmlns="http://www.w3.org/2000/svg" xmlns:xlink="http://www.w3.org/1999/xlink" x="0px" y="0px"
	 width="18px" height="18px" viewBox="0 0 18 18" enable-background="new 0 0 18 18" xml:space="preserve">
<g>
	<path fill="#FFFFFF" d="M6.8442383,13.5205078l-3.1572266-3.1582031c-0.1499023-0.1513672-0.3662109-0.2109375-0.565918-0.1582031
		c-0.2070312,0.0527344-0.3652344,0.2070312-0.421875,0.4042969l-2.003418,5.1679688
		c-0.0610352,0.2080078-0.0043945,0.4277344,0.1494141,0.5820312c0.1118164,0.1191406,0.3720703,0.1894531,0.5834961,0.1542969
		l5.1645508-2.0068359c0.203125-0.0615234,0.3549805-0.2216797,0.4077148-0.4199219
		C7.0493164,13.8798828,6.9921875,13.6669922,6.8442383,13.5205078z"/>
	<g>
		<path fill="#FFFFFF" d="M11.8095703,1.621582l3.7734375,3.7719727l-8.1152344,8.1152344L3.6962891,9.734375L11.8095703,1.621582
			 M11.8105469,0c-0.2089844,0-0.4121094,0.0791016-0.5712891,0.2368164L2.3125,9.1625977
			c-0.315918,0.3164062-0.315918,0.8305664,0,1.1430664l4.5830078,4.5878906
			c0.1582031,0.1582031,0.3662109,0.2382812,0.5727539,0.2382812c0.2099609,0,0.4155273-0.0800781,0.5732422-0.2382812
			l8.9282227-8.9262695c0.3144531-0.3178711,0.3144531-0.8339844,0-1.1464844l-4.5898438-4.5839844
			C12.2255859,0.0791016,12.0166016,0,11.8105469,0L11.8105469,0z"/>
	</g>
	<polygon fill="#FFFFFF" points="4.5048828,8.652832 3.2568359,9.9047852 7.3447266,13.9902344 8.5986328,12.7392578 	"/>
	
		<rect x="7.7500496" y="6.0794964" transform="matrix(0.7068751 -0.7073383 0.7073383 0.7068751 -3.9184074 8.4839592)" fill="#FFFFFF" width="1.0541002" height="5.7804599"/>
	<path fill="#FFFFFF" d="M16.6191406,18H3.3974609c-0.3955078,0-0.7124023-0.3193359-0.7124023-0.7119141
		s0.3168945-0.7119141,0.7124023-0.7119141h13.2216797c0.3896484,0,0.7089844,0.3193359,0.7089844,0.7119141
		S17.0087891,18,16.6191406,18z"/>
</g>
</svg>
