<?xml version="1.0" encoding="utf-8"?>
<!-- Generator: Adobe Illustrator 16.0.0, SVG Export Plug-In . SVG Version: 6.00 Build 0)  -->
<!DOCTYPE svg PUBLIC "-//W3C//DTD SVG 1.1//EN" "http://www.w3.org/Graphics/SVG/1.1/DTD/svg11.dtd">
<svg version="1.1" id="Слой_1" xmlns="http://www.w3.org/2000/svg" xmlns:xlink="http://www.w3.org/1999/xlink" x="0px" y="0px"
	 width="18px" height="18px" viewBox="0 0 18 18" enable-background="new 0 0 18 18" xml:space="preserve">
<path fill="#FFFFFF" d="M3.4609375,15.0908203c-0.1420898,0-0.2836914-0.0527344-0.3901367-0.1582031
	c-0.2182617-0.21875-0.2182617-0.5683594,0-0.7871094l13.543457-13.543457c0.2167969-0.2138672,0.5683594-0.2138672,0.7792969,0
	c0.21875,0.21875,0.21875,0.5693359,0,0.7841797L3.8540039,14.9326172
	C3.7456055,15.0380859,3.6030273,15.0908203,3.4609375,15.0908203z"/>
<path fill="#FFFFFF" d="M14.5390625,2.7695312c0.3789062,0,0.6923828,0.3110352,0.6923828,0.6914062V13.84375
	c0,0.3857422-0.3134766,0.6953125-0.6923828,0.6953125H13.15625c-0.3857422,0-0.6953125-0.3095703-0.6953125-0.6953125V3.4609375
	c0-0.3803711,0.3095703-0.6914062,0.6953125-0.6914062H14.5390625z"/>
<path fill="#FFFFFF" d="M15.2314453,15.921875v1.3837891C15.2314453,17.6914062,14.9179688,18,14.5390625,18H13.15625
	c-0.3857422,0-0.6953125-0.3085938-0.6953125-0.6943359V15.921875H15.2314453z"/>
<path fill="#FFFFFF" d="M15.2314453,4.847168c0,0.3793945-0.3134766,0.6918945-0.6923828,0.6918945H4.152832
	c-0.3793945,0-0.6918945-0.3125-0.6918945-0.6918945V3.4609375c0-0.3803711,0.3125-0.6914062,0.6918945-0.6914062h10.3862305
	c0.3789062,0,0.6923828,0.3110352,0.6923828,0.6914062V4.847168z"/>
<path fill="#FFFFFF" d="M2.078125,5.5390625H0.6914062C0.3120117,5.5390625,0,5.2265625,0,4.847168V3.4609375
	c0-0.3803711,0.3120117-0.6914062,0.6914062-0.6914062H2.078125V5.5390625z"/>
<path fill="#FFFFFF" d="M3.4609375,15.2314453c-0.3803711,0-0.6914062-0.3134766-0.6914062-0.6923828V0.6914062
	C2.7695312,0.3120117,3.0805664,0,3.4609375,0H4.847168c0.3793945,0,0.6918945,0.3120117,0.6918945,0.6914062v13.8476562
	c0,0.3789062-0.3125,0.6923828-0.6918945,0.6923828H3.4609375z"/>
<path fill="#FFFFFF" d="M2.7695312,13.15625c0-0.3857422,0.3110352-0.6953125,0.6914062-0.6953125h13.8447266
	C17.6914062,12.4609375,18,12.7705078,18,13.15625v1.3828125c0,0.3789062-0.3085938,0.6923828-0.6943359,0.6923828H3.4609375
	c-0.3803711,0-0.6914062-0.3134766-0.6914062-0.6923828V13.15625z"/>
</svg>
