<?xml version="1.0" encoding="utf-8"?>
<!-- Generator: Adobe Illustrator 16.0.0, SVG Export Plug-In . SVG Version: 6.00 Build 0)  -->
<!DOCTYPE svg PUBLIC "-//W3C//DTD SVG 1.1//EN" "http://www.w3.org/Graphics/SVG/1.1/DTD/svg11.dtd">
<svg version="1.1" id="Слой_1" xmlns="http://www.w3.org/2000/svg" xmlns:xlink="http://www.w3.org/1999/xlink" x="0px" y="0px"
	 width="18px" height="18px" viewBox="0 0 18 18" enable-background="new 0 0 18 18" xml:space="preserve">
<g>
	<path fill="#FFFFFF" d="M12.4267578,6.2958984l3.4697266,3.4731445c1.1181641,1.1196289-1.3251953,2.121582-1.3251953,4.8813477
		c0,2.0986328,3.3837891,4.4091797,3.3837891,0.8457031c0-1.0927734,0-3.0332031,0-4.1328125
		C17.9550781,7.2104492,12.4267578,6.2958984,12.4267578,6.2958984z"/>
	<path fill="#FFFFFF" d="M11.0332031,7.7583008c-0.4140625,0-0.75-0.3359375-0.75-0.75
		c0-2.1816406-1.2197266-5.4804688-3.0585938-5.4804688c-1.9321289,0-2.3666992,2.0078125-2.3666992,2.7114258
		c0,0.4140625-0.3359375,0.75-0.75,0.75s-0.75-0.3359375-0.75-0.75c0-1.628418,1.0498047-4.2114258,3.8666992-4.2114258
		c2.9355469,0,4.5585938,4.1274414,4.5585938,6.9804688C11.7832031,7.4223633,11.4472656,7.7583008,11.0332031,7.7583008z"/>
	<path fill="#FFFFFF" d="M10.2675781,5.8364258c0.1025391,0.6875,0.0849609,1.2617188,0.0498047,1.5493164
		c0.3251953,0.2163086,0.5429688,0.5874023,0.5429688,1.0063477c0,0.6679688-0.5429688,1.2128906-1.2138672,1.2128906
		c-0.6694336,0-1.2099609-0.5449219-1.2099609-1.2128906c0-0.4287109,0.2260742-0.8041992,0.5668945-1.0195312
		c0.1772461-0.5263672,0.421875-1.5556641,0.0405273-2.7617188l-0.699707-0.7001953
		C7.3608398,2.9291992,6.4013672,3.8452148,6.4013672,3.8452148L0.21875,10.0273438
		c-0.6469727,0.6503906,0.5668945,2.9160156,2.7114258,5.0605469c2.1445312,2.1455078,4.4091797,3.359375,5.0566406,2.7089844
		c0,0,5.8334961-5.8359375,6.1450195-6.1445312c0.3115234-0.3076172,0.8173828-1.1328125,0.0751953-1.8725586
		C13.4648438,9.0366211,10.2675781,5.8364258,10.2675781,5.8364258z"/>
</g>
</svg>
