<?xml version="1.0" encoding="utf-8"?>
<!-- Generator: Adobe Illustrator 16.0.0, SVG Export Plug-In . SVG Version: 6.00 Build 0)  -->
<!DOCTYPE svg PUBLIC "-//W3C//DTD SVG 1.1//EN" "http://www.w3.org/Graphics/SVG/1.1/DTD/svg11.dtd">
<svg version="1.1" id="Слой_1" xmlns="http://www.w3.org/2000/svg" xmlns:xlink="http://www.w3.org/1999/xlink" x="0px" y="0px"
	 width="18px" height="18px" viewBox="0 0 18 18" enable-background="new 0 0 18 18" xml:space="preserve">
<g>
	<rect x="0.0302734" fill="none" width="17.9394531" height="18"/>
	<g>
		<path d="M8.5117188,9.7880859c-0.0004883,0.21875-0.1767578,0.3964844-0.3955078,0.3964844l-6.8808594-0.0009766
			C1.0200195,10.1845703,0.84375,10.0078125,0.84375,9.7871094V8.2114258c0-0.2172852,0.1762695-0.3930664,0.3925781-0.3930664
			l6.8818359-0.0014648c0.2172852,0,0.3935547,0.1772461,0.3935547,0.3945312V9.7880859z"/>
		<path d="M0.1630859,9.3959961l3.5341797,3.5473633c0.159668,0.1601562,0.4003906,0.2089844,0.6079102,0.1210938
			c0.2075195-0.0859375,0.3442383-0.2919922,0.3452148-0.5175781v-7.09375
			C4.6494141,5.3022461,4.5898438,5.1611328,4.4863281,5.0585938C4.4350586,5.0068359,4.375,4.9648438,4.3051758,4.9365234
			C4.0976562,4.8500977,3.8569336,4.8989258,3.6972656,5.0585938L0.1630859,8.6049805
			C-0.0546875,8.8237305-0.0546875,9.1772461,0.1630859,9.3959961z"/>
	</g>
	<g>
		<path d="M9.4873047,8.2114258c0.0014648-0.2172852,0.1777344-0.3930664,0.3955078-0.3945312l6.8808594,0.0014648
			C16.9804688,7.8168945,17.15625,7.9941406,17.15625,8.2114258v1.5766602c0,0.21875-0.1767578,0.3964844-0.3935547,0.3964844
			H9.8818359c-0.2172852,0-0.3945312-0.1777344-0.3945312-0.3964844V8.2114258z"/>
		<path d="M17.8359375,8.6049805l-3.5351562-3.5463867c-0.1601562-0.159668-0.3974609-0.2089844-0.6054688-0.1220703
			c-0.2070312,0.0869141-0.3457031,0.2910156-0.3457031,0.5166016v7.09375c0,0.1503906,0.0595703,0.2919922,0.1621094,0.3964844
			c0.0507812,0.0498047,0.1142578,0.0917969,0.1835938,0.1210938c0.2070312,0.0869141,0.4453125,0.0390625,0.6054688-0.1210938
			l3.5351562-3.5473633C18.0546875,9.1772461,18.0546875,8.8237305,17.8359375,8.6049805z"/>
	</g>
</g>
</svg>
