<?xml version="1.0" encoding="utf-8"?>
<!-- Generator: Adobe Illustrator 16.0.0, SVG Export Plug-In . SVG Version: 6.00 Build 0)  -->
<!DOCTYPE svg PUBLIC "-//W3C//DTD SVG 1.1//EN" "http://www.w3.org/Graphics/SVG/1.1/DTD/svg11.dtd">
<svg version="1.1" id="Слой_1" xmlns="http://www.w3.org/2000/svg" xmlns:xlink="http://www.w3.org/1999/xlink" x="0px" y="0px"
	 width="54px" height="54px" viewBox="0 0 54 54" enable-background="new 0 0 54 54" xml:space="preserve">
<path d="M27,0C12.0888672,0,0,12.0883789,0,27c0,14.9121094,12.0888672,27,27,27s27-12.0878906,27-27
	C54,12.0883789,41.9111328,0,27,0z M37.1591797,33.0947266c1.1210938,1.1210938,1.1210938,2.9414062,0,4.0625
	c-1.1220703,1.1220703-2.9433594,1.1220703-4.0644531,0L27,31.0634766l-6.0942383,6.09375
	c-1.1220703,1.1220703-2.9418945,1.1220703-4.0644531,0c-1.121582-1.1201172-1.121582-2.9404297,0-4.0625L22.9365234,27
	l-6.0952148-6.0942383c-1.121582-1.1210938-1.121582-2.940918,0-4.0634766c1.1225586-1.121582,2.9423828-1.121582,4.0644531,0
	L27,22.9365234l6.0947266-6.0942383c1.1210938-1.121582,2.9423828-1.121582,4.0644531,0
	c1.1210938,1.121582,1.1210938,2.9414062,0,4.0634766L31.0634766,27L37.1591797,33.0947266z"/>
</svg>
