<?xml version="1.0" encoding="utf-8"?>
<!-- Generator: Adobe Illustrator 16.0.0, SVG Export Plug-In . SVG Version: 6.00 Build 0)  -->
<!DOCTYPE svg PUBLIC "-//W3C//DTD SVG 1.1//EN" "http://www.w3.org/Graphics/SVG/1.1/DTD/svg11.dtd">
<svg version="1.1" id="Слой_1" xmlns="http://www.w3.org/2000/svg" xmlns:xlink="http://www.w3.org/1999/xlink" x="0px" y="0px"
	 width="54px" height="54px" viewBox="0 0 54 54" enable-background="new 0 0 54 54" xml:space="preserve">
<path d="M27,0C12.0888672,0,0,12.0888672,0,27c0,14.9042969,12.0888672,27,27,27c14.9033203,0,27-12.0957031,27-27
	C54,12.0888672,41.9033203,0,27,0z M39.0751953,23.0654297L26.390625,35.7636719
	c-1.171875,1.1591797-3.0693359,1.1591797-4.2241211,0l-6.3476562-6.3583984c-1.1674805-1.1552734-1.1674805-3.059082,0-4.2197266
	c1.175293-1.168457,3.0664062-1.168457,4.2275391,0l4.2338867,4.2197266l10.5566406-10.5654297
	c1.1708984-1.1699219,3.0820312-1.1699219,4.2382812,0C40.2324219,20.0131836,40.2324219,21.90625,39.0751953,23.0654297z"/>
</svg>
