<?xml version="1.0" encoding="utf-8"?>
<!-- Generator: Adobe Illustrator 16.0.0, SVG Export Plug-In . SVG Version: 6.00 Build 0)  -->
<!DOCTYPE svg PUBLIC "-//W3C//DTD SVG 1.1//EN" "http://www.w3.org/Graphics/SVG/1.1/DTD/svg11.dtd">
<svg version="1.1" id="Слой_1" xmlns="http://www.w3.org/2000/svg" xmlns:xlink="http://www.w3.org/1999/xlink" x="0px" y="0px"
	 width="54px" height="54px" viewBox="0 0 54 54" enable-background="new 0 0 54 54" xml:space="preserve">
<path d="M27,0C12.0888672,0,0,12.0888672,0,27c0,14.9121094,12.0888672,27,27,27c14.9121094,0,27-12.0878906,27-27
	C54,12.0888672,41.9121094,0,27,0z M27,49.0908203c-12.2001953,0-22.0908203-9.890625-22.0908203-22.0908203
	S14.7998047,4.9091797,27,4.9091797S49.0908203,14.7998047,49.0908203,27S39.2001953,49.0908203,27,49.0908203z"/>
<path d="M29.4541016,25.9829102V12.2729492c0-1.355957-1.0986328-2.4545898-2.4541016-2.4545898
	s-2.4545898,1.0986328-2.4545898,2.4545898V27c0,0.0053711,0.0019531,0.0112305,0.0019531,0.0166016
	c0.0004883,0.1552734,0.015625,0.3105469,0.0463867,0.4633789c0.0151367,0.074707,0.0424805,0.1430664,0.0639648,0.2167969
	c0.0239258,0.0810547,0.0424805,0.1635742,0.0751953,0.2426758c0.0351562,0.0849609,0.0830078,0.1621094,0.1274414,0.2412109
	c0.0332031,0.0625,0.0595703,0.1230469,0.0981445,0.1816406c0.0898438,0.1357422,0.1923828,0.2626953,0.3071289,0.3759766
	l6.9404297,6.9414062c0.9589844,0.9589844,2.5146484,0.9589844,3.4726562,0c0.9580078-0.9580078,0.9580078-2.5136719,0-3.4707031
	L29.4541016,25.9829102z"/>
</svg>
