<?xml version="1.0" encoding="utf-8"?>
<!-- Generator: Adobe Illustrator 16.0.0, SVG Export Plug-In . SVG Version: 6.00 Build 0)  -->
<!DOCTYPE svg PUBLIC "-//W3C//DTD SVG 1.1//EN" "http://www.w3.org/Graphics/SVG/1.1/DTD/svg11.dtd">
<svg version="1.1" id="Слой_1" xmlns="http://www.w3.org/2000/svg" xmlns:xlink="http://www.w3.org/1999/xlink" x="0px" y="0px"
	 width="54px" height="54px" viewBox="0 0 54 54" enable-background="new 0 0 54 54" xml:space="preserve">
<g>
	<path d="M46.6367188,4.9091797c1.3535156,0,2.4541016,1.1005859,2.4541016,2.4545898v26.9995117
		c0,1.3544922-1.1005859,2.4550781-2.4541016,2.4550781H27h-1.5727539l-1.2797852,0.9140625l-9.4204102,6.7285156v-2.7333984
		v-4.9091797H9.8183594H7.3637695c-1.3540039,0-2.4545898-1.1005859-2.4545898-2.4550781V7.3637695
		c0-1.3540039,1.1005859-2.4545898,2.4545898-2.4545898H46.6367188 M46.6367188,0H7.3637695C3.296875,0,0,3.296875,0,7.3637695
		v26.9995117c0,4.0664062,3.296875,7.3642578,7.3637695,7.3642578h2.4545898V54L27,41.7275391h19.6367188
		C50.703125,41.7275391,54,38.4296875,54,34.3632812V7.3637695C54,3.296875,50.703125,0,46.6367188,0L46.6367188,0z"/>
</g>
</svg>
