<?xml version="1.0" encoding="utf-8"?>
<!-- Generator: Adobe Illustrator 16.0.0, SVG Export Plug-In . SVG Version: 6.00 Build 0)  -->
<!DOCTYPE svg PUBLIC "-//W3C//DTD SVG 1.1//EN" "http://www.w3.org/Graphics/SVG/1.1/DTD/svg11.dtd">
<svg version="1.1" id="Слой_1" xmlns="http://www.w3.org/2000/svg" xmlns:xlink="http://www.w3.org/1999/xlink" x="0px" y="0px"
	 width="54px" height="54px" viewBox="0 0 54 54" enable-background="new 0 0 54 54" xml:space="preserve">
<g>
	<path d="M49.6660156,25.0605469L42.6875,32.0390625c-0.3964844,0.3974609-0.8066406,0.7636719-1.234375,1.1035156
		c-1.6308594,1.3076172-3.4755859,2.2109375-5.4082031,2.7207031c-1.7529297,0.4794922-3.5849609,0.6191406-5.3857422,0.4238281
		c-1.6748047-0.1738281-3.331543-0.6367188-4.8803711-1.390625c-1.456543-0.6992188-2.8217773-1.6542969-4.0249023-2.8574219
		c-1.2036133-1.2041016-2.1586914-2.5683594-2.8569336-4.0253906c1.9282227-1.3696289,4.6230469-1.1865234,6.3457031,0.5361328
		c1.7709961,1.7714844,4.0473633,2.7294922,6.362793,2.8740234c1.6533203,0.1005859,3.3369141-0.2138672,4.8632812-0.9462891
		c0.9902344-0.4658203,1.9150391-1.1123047,2.7304688-1.9277344l6.9775391-6.9780273
		c3.8554688-3.8549805,3.8818359-10.074707,0.0263672-13.9301758c-3.8505859-3.8515625-10.1269531-3.8813477-13.9824219-0.0258789
		l-5.3637695,5.3637695c-2.0288086-0.5449219-4.1220703-0.7539062-6.2060547-0.640625
		c0.3408203-0.4272461,0.7070312-0.8374023,1.1035156-1.234375l6.9770508-6.9775391
		c5.7792969-5.7783203,15.1552734-5.7783203,20.9345703,0C55.4443359,9.9057617,55.4443359,19.2822266,49.6660156,25.0605469z"/>
	<path d="M32.2197266,42.5058594l-6.9775391,6.9785156c-5.7783203,5.7792969-15.0991211,5.8359375-20.8818359,0.0517578
		c-5.7788086-5.7783203-5.8310547-15.2070312-0.0527344-20.9863281l6.9780273-6.9780273
		c0.3969727-0.3974609,0.8066406-0.7631836,1.2338867-1.1035156c1.6318359-1.309082,3.4765625-2.2114258,5.4086914-2.722168
		c1.753418-0.4794922,3.5849609-0.6191406,5.3867188-0.4228516c1.6743164,0.1748047,3.3320312,0.637207,4.8803711,1.3911133
		c1.4560547,0.6977539,2.8212891,1.6533203,4.0253906,2.8569336c1.2021484,1.2036133,2.1582031,2.5688477,2.8554688,4.0249023
		c-1.9267578,1.3701172-4.6220703,1.1865234-6.3447266-0.5366211c-1.7709961-1.7705078-4.0473633-2.7299805-6.362793-2.8740234
		c-1.652832-0.1005859-3.3364258,0.2138672-4.862793,0.9462891c-0.9897461,0.4667969-1.9145508,1.1123047-2.7299805,1.9277344
		l-6.9785156,6.9794922c-3.8549805,3.8554688-3.8549805,10.1005859,0,13.9560547
		c3.8554688,3.8554688,10.1010742,3.8554688,13.9555664,0l5.3642578-5.3652344
		c2.0234375,0.5410156,4.1259766,0.7509766,6.2060547,0.6425781C32.9833984,41.7001953,32.6171875,42.109375,32.2197266,42.5058594z
		"/>
</g>
</svg>
