<?xml version="1.0" encoding="utf-8"?>
<!-- Generator: Adobe Illustrator 16.0.0, SVG Export Plug-In . SVG Version: 6.00 Build 0)  -->
<!DOCTYPE svg PUBLIC "-//W3C//DTD SVG 1.1//EN" "http://www.w3.org/Graphics/SVG/1.1/DTD/svg11.dtd">
<svg version="1.1" id="Слой_1" xmlns="http://www.w3.org/2000/svg" xmlns:xlink="http://www.w3.org/1999/xlink" x="0px" y="0px"
	 width="54px" height="54px" viewBox="0 0 54 54" enable-background="new 0 0 54 54" xml:space="preserve">
<path d="M46.6367188,4.9091797H7.3637695C3.296875,4.9091797,0,8.2060547,0,12.2729492v29.4545898
	c0,4.0664062,3.296875,7.3632812,7.3637695,7.3632812h39.2729492C50.703125,49.0908203,54,45.7939453,54,41.7275391V12.2729492
	C54,8.2060547,50.703125,4.9091797,46.6367188,4.9091797z M46.6367188,9.8183594c0.28125,0,0.546875,0.0566406,0.7988281,0.144043
	L27,26.3110352L6.5639648,9.9624023C6.8164062,9.875,7.0820312,9.8183594,7.3637695,9.8183594H46.6367188z M46.6367188,44.1816406
	H7.3637695c-1.3564453,0-2.4545898-1.0986328-2.4545898-2.4541016V14.9257812l20.5571289,16.4453125
	C25.9145508,31.7294922,26.4575195,31.9091797,27,31.9091797s1.0859375-0.1796875,1.5332031-0.5380859l20.5576172-16.4453125
	v26.8017578C49.0908203,43.0830078,47.9921875,44.1816406,46.6367188,44.1816406z"/>
</svg>
