<?xml version="1.0" encoding="utf-8"?>
<!-- Generator: Adobe Illustrator 16.0.0, SVG Export Plug-In . SVG Version: 6.00 Build 0)  -->
<!DOCTYPE svg PUBLIC "-//W3C//DTD SVG 1.1//EN" "http://www.w3.org/Graphics/SVG/1.1/DTD/svg11.dtd">
<svg version="1.1" id="Слой_1" xmlns="http://www.w3.org/2000/svg" xmlns:xlink="http://www.w3.org/1999/xlink" x="0px" y="0px"
	 width="54px" height="54px" viewBox="0 0 54 54" enable-background="new 0 0 54 54" xml:space="preserve">
<path d="M27,0C12.0893555,0,0,12.0888672,0,27s12.0893555,27,27,27c14.9101562,0,27-12.0888672,27-27S41.9101562,0,27,0z
	 M38.6015625,30H30v8.6015625c0,1.5986328-1.3964844,2.8974609-2.9985352,2.8974609
	C25.3999023,41.4990234,24,40.2001953,24,38.6015625V30h-8.6005859c-1.6000977,0-2.9003906-1.3964844-2.9003906-2.9985352
	C12.4990234,25.3999023,13.7993164,24,15.3994141,24H24v-8.6005859c0-1.6000977,1.3999023-2.9003906,3.0014648-2.9003906
	C28.6035156,12.4990234,30,13.7993164,30,15.3994141V24h8.6015625c1.5986328,0,2.8974609,1.3999023,2.8974609,3.0014648
	C41.4990234,28.6035156,40.2001953,30,38.6015625,30z"/>
</svg>
